<?xml version="1.0" encoding="UTF-8"?>
<svg id="Layer_1" xmlns="http://www.w3.org/2000/svg" xmlns:xlink="http://www.w3.org/1999/xlink" version="1.1" viewBox="0 0 384 408">
  <!-- Generator: Adobe Illustrator 29.1.0, SVG Export Plug-In . SVG Version: 2.1.0 Build 142)  -->
  <defs>
    <style>
      .st0 {
        font-size: 118.3px;
      }

      .st0, .st1, .st2 {
        fill: #000222;
      }

      .st0, .st2 {
        font-family: Montserrat-Bold, Montserrat;
        font-weight: 700;
      }

      .st3 {
        opacity: .2;
      }

      .st1 {
        font-family: Montserrat-Medium, Montserrat;
        font-size: 62.9px;
        font-weight: 500;
        letter-spacing: 0em;
      }

      .st4 {
        fill: #009dc4;
      }

      .st2 {
        font-size: 64px;
      }
    </style>
  </defs>
  <image id="L0Q0kd" width="1000" height="1080" transform="translate(-1643 -812)" xlink:href="LOGO-1.png"/>
  <text class="st0" transform="translate(2627 -2128)"><tspan x="0" y="0">APARTMANI</tspan></text>
  <text class="st1" transform="translate(2827.6 -2043.5)"><tspan x="0" y="0">KAŠTELINA</tspan></text>
  <g>
    <g>
      <path class="st4" d="M2992.2-2658.9v207h-161v-46c0-12.5,1.4-24.7,4.1-36.4,4.1-17.7,11.1-34.2,20.4-49.1,28.5-45.4,78.9-75.5,136.5-75.5Z"/>
      <rect class="st4" x="3031.2" y="-2422.9" width="161" height="172"/>
      <rect class="st4" x="2831.2" y="-2422.9" width="161" height="172"/>
      <path class="st4" d="M3192.2-2497.9v46h-161v-207c88.9,0,161,72.1,161,161Z"/>
    </g>
    <path class="st3" d="M2992.2-2658.9v207l-137-130c.2-.5.4-1,.5-1.5,28.5-45.4,78.9-75.5,136.5-75.5Z"/>
    <path class="st3" d="M2966.4-2422.9"/>
    <path class="st3" d="M2992.2-2401"/>
    <path class="st3" d="M3192.2-2497.9v46h-161v-207c88.9,0,161,72.1,161,161Z"/>
    <polygon class="st3" points="3031.2 -2422.9 3192.2 -2422.9 3192.2 -2250.9 3193.2 -2250.9 3031.2 -2422.9 3031.2 -2422.9"/>
  </g>
  <g>
    <g>
      <path class="st4" d="M171.2,0v207H10.2v-46c0-12.5,1.4-24.7,4.1-36.4,4.1-17.7,11.1-34.2,20.4-49.1C63.2,30.2,113.7,0,171.2,0Z"/>
      <rect class="st4" x="210.2" y="236.1" width="161" height="172"/>
      <rect class="st4" x="10.2" y="236.1" width="161" height="172"/>
      <path class="st4" d="M371.2,161.1v46h-161V0c88.9,0,161,72.1,161,161Z"/>
    </g>
    <path class="st3" d="M171.2,0v207L34.2,77.1c.2-.5.4-1,.5-1.5C63.2,30.2,113.7,0,171.2,0Z"/>
    <path class="st3" d="M145.4,236.1"/>
    <path class="st3" d="M171.2,258"/>
    <path class="st3" d="M371.2,161.1v46h-161V0c88.9,0,161,72.1,161,161Z"/>
    <polygon class="st3" points="210.2 236.1 371.2 236.1 371.2 408.1 372.2 408.1 210.2 236.1 210.2 236.1"/>
  </g>
  <text class="st2" transform="translate(2626.6 -2251.3)"><tspan x="0" y="0">ESTD</tspan></text>
  <text class="st2" transform="translate(3223.6 -2251.3)"><tspan x="0" y="0">2020</tspan></text>
</svg>